<svg width="20" height="22" viewBox="0 0 20 22" fill="none" xmlns="http://www.w3.org/2000/svg">
<path d="M19.1667 3.32449H15V2.49337C15 1.83209 14.7366 1.19789 14.2678 0.730291C13.7989 0.262694 13.163 0 12.5 0H7.5C6.83696 0 6.20107 0.262694 5.73223 0.730291C5.26339 1.19789 5 1.83209 5 2.49337V3.32449H0.833333C0.61232 3.32449 0.400358 3.41206 0.244078 3.56792C0.0877975 3.72379 0 3.93519 0 4.15561C0 4.37604 0.0877975 4.58744 0.244078 4.74331C0.400358 4.89917 0.61232 4.98674 0.833333 4.98674H1.66667V19.947C1.66667 20.3878 1.84226 20.8106 2.15482 21.1223C2.46738 21.4341 2.89131 21.6092 3.33333 21.6092H16.6667C17.1087 21.6092 17.5326 21.4341 17.8452 21.1223C18.1577 20.8106 18.3333 20.3878 18.3333 19.947V4.98674H19.1667C19.3877 4.98674 19.5996 4.89917 19.7559 4.74331C19.9122 4.58744 20 4.37604 20 4.15561C20 3.93519 19.9122 3.72379 19.7559 3.56792C19.5996 3.41206 19.3877 3.32449 19.1667 3.32449ZM6.66667 2.49337C6.66667 2.27294 6.75446 2.06154 6.91074 1.90568C7.06702 1.74981 7.27899 1.66225 7.5 1.66225H12.5C12.721 1.66225 12.933 1.74981 13.0893 1.90568C13.2455 2.06154 13.3333 2.27294 13.3333 2.49337V3.32449H6.66667V2.49337ZM16.6667 19.947H3.33333V4.98674H16.6667V19.947ZM8.33333 9.14235V15.7913C8.33333 16.0118 8.24554 16.2232 8.08926 16.379C7.93298 16.5349 7.72101 16.6225 7.5 16.6225C7.27899 16.6225 7.06702 16.5349 6.91074 16.379C6.75446 16.2232 6.66667 16.0118 6.66667 15.7913V9.14235C6.66667 8.92193 6.75446 8.71053 6.91074 8.55466C7.06702 8.3988 7.27899 8.31123 7.5 8.31123C7.72101 8.31123 7.93298 8.3988 8.08926 8.55466C8.24554 8.71053 8.33333 8.92193 8.33333 9.14235ZM13.3333 9.14235V15.7913C13.3333 16.0118 13.2455 16.2232 13.0893 16.379C12.933 16.5349 12.721 16.6225 12.5 16.6225C12.279 16.6225 12.067 16.5349 11.9107 16.379C11.7545 16.2232 11.6667 16.0118 11.6667 15.7913V9.14235C11.6667 8.92193 11.7545 8.71053 11.9107 8.55466C12.067 8.3988 12.279 8.31123 12.5 8.31123C12.721 8.31123 12.933 8.3988 13.0893 8.55466C13.2455 8.71053 13.3333 8.92193 13.3333 9.14235Z" fill="#C23B22"/>
</svg>
