<svg width="20" height="20" viewBox="0 0 20 20" fill="none" xmlns="http://www.w3.org/2000/svg">
<path d="M12.2872 6.68798L13.3093 7.71006L3.244 17.7754H2.22192V16.7533L12.2872 6.68798ZM16.2867 0C16.0089 0 15.7201 0.111096 15.509 0.322178L13.4759 2.35524L17.642 6.52134L19.6751 4.48828C19.7781 4.3855 19.8598 4.26342 19.9156 4.12902C19.9713 3.99463 20 3.85055 20 3.70505C20 3.55955 19.9713 3.41548 19.9156 3.28108C19.8598 3.14669 19.7781 3.0246 19.6751 2.92183L17.0755 0.322178C16.8533 0.0999864 16.5755 0 16.2867 0ZM12.2872 3.54396L0 15.8312V19.9973H4.1661L16.4533 7.71006L12.2872 3.54396Z" fill="#FFD400"/>
</svg>
