<svg width="210" height="27" viewBox="0 0 210 27" fill="none" xmlns="http://www.w3.org/2000/svg">
<path d="M9.112 26.224C7.46933 26.224 5.99733 25.9573 4.696 25.424C3.39467 24.8907 2.34933 24.1013 1.56 23.056C0.792 22.0107 0.386667 20.752 0.344 19.28H6.168C6.25333 20.112 6.54133 20.752 7.032 21.2C7.52267 21.6267 8.16267 21.84 8.952 21.84C9.76267 21.84 10.4027 21.6587 10.872 21.296C11.3413 20.912 11.576 20.3893 11.576 19.728C11.576 19.1733 11.384 18.7147 11 18.352C10.6373 17.9893 10.1787 17.6907 9.624 17.456C9.09067 17.2213 8.32267 16.9547 7.32 16.656C5.86933 16.208 4.68533 15.76 3.768 15.312C2.85067 14.864 2.06133 14.2027 1.4 13.328C0.738667 12.4533 0.408 11.312 0.408 9.904C0.408 7.81333 1.16533 6.18133 2.68 5.008C4.19467 3.81333 6.168 3.216 8.6 3.216C11.0747 3.216 13.0693 3.81333 14.584 5.008C16.0987 6.18133 16.9093 7.824 17.016 9.936H11.096C11.0533 9.21067 10.7867 8.64533 10.296 8.24C9.80533 7.81333 9.176 7.6 8.408 7.6C7.74667 7.6 7.21333 7.78133 6.808 8.144C6.40267 8.48533 6.2 8.98667 6.2 9.648C6.2 10.3733 6.54133 10.9387 7.224 11.344C7.90667 11.7493 8.97333 12.1867 10.424 12.656C11.8747 13.1467 13.048 13.616 13.944 14.064C14.8613 14.512 15.6507 15.1627 16.312 16.016C16.9733 16.8693 17.304 17.968 17.304 19.312C17.304 20.592 16.9733 21.7547 16.312 22.8C15.672 23.8453 14.7333 24.6773 13.496 25.296C12.2587 25.9147 10.7973 26.224 9.112 26.224ZM19.5835 17.04C19.5835 15.2053 19.9248 13.5947 20.6075 12.208C21.3115 10.8213 22.2608 9.75467 23.4555 9.008C24.6502 8.26133 25.9835 7.888 27.4555 7.888C28.7142 7.888 29.8128 8.144 30.7515 8.656C31.7115 9.168 32.4475 9.84 32.9595 10.672V8.144H38.4315V26H32.9595V23.472C32.4262 24.304 31.6795 24.976 30.7195 25.488C29.7808 26 28.6822 26.256 27.4235 26.256C25.9728 26.256 24.6502 25.8827 23.4555 25.136C22.2608 24.368 21.3115 23.2907 20.6075 21.904C19.9248 20.496 19.5835 18.8747 19.5835 17.04ZM32.9595 17.072C32.9595 15.7067 32.5755 14.6293 31.8075 13.84C31.0608 13.0507 30.1435 12.656 29.0555 12.656C27.9675 12.656 27.0395 13.0507 26.2715 13.84C25.5248 14.608 25.1515 15.6747 25.1515 17.04C25.1515 18.4053 25.5248 19.4933 26.2715 20.304C27.0395 21.0933 27.9675 21.488 29.0555 21.488C30.1435 21.488 31.0608 21.0933 31.8075 20.304C32.5755 19.5147 32.9595 18.4373 32.9595 17.072ZM52.3423 21.36V26H49.5583C47.5743 26 46.0276 25.52 44.9183 24.56C43.8089 23.5787 43.2543 21.9893 43.2543 19.792V12.688H41.0783V8.144H43.2543V3.792H48.7263V8.144H52.3103V12.688H48.7263V19.856C48.7263 20.3893 48.8543 20.7733 49.1103 21.008C49.3663 21.2427 49.7929 21.36 50.3903 21.36H52.3423ZM73.0223 8.144V26H67.5503V23.568C66.9956 24.3573 66.2383 24.9973 65.2783 25.488C64.3396 25.9573 63.2943 26.192 62.1423 26.192C60.7769 26.192 59.5716 25.8933 58.5263 25.296C57.4809 24.6773 56.6703 23.792 56.0943 22.64C55.5183 21.488 55.2303 20.1333 55.2303 18.576V8.144H60.6703V17.84C60.6703 19.0347 60.9796 19.9627 61.5983 20.624C62.2169 21.2853 63.0489 21.616 64.0943 21.616C65.1609 21.616 66.0036 21.2853 66.6223 20.624C67.2409 19.9627 67.5503 19.0347 67.5503 17.84V8.144H73.0223ZM91.5768 3.536V7.92H82.4248V12.656H89.2728V16.912H82.4248V26H76.9528V3.536H91.5768ZM93.3648 17.04C93.3648 15.2053 93.7061 13.5947 94.3888 12.208C95.0928 10.8213 96.0421 9.75467 97.2368 9.008C98.4314 8.26133 99.7648 7.888 101.237 7.888C102.495 7.888 103.594 8.144 104.533 8.656C105.493 9.168 106.229 9.84 106.741 10.672V8.144H112.213V26H106.741V23.472C106.207 24.304 105.461 24.976 104.501 25.488C103.562 26 102.463 26.256 101.205 26.256C99.7541 26.256 98.4314 25.8827 97.2368 25.136C96.0421 24.368 95.0928 23.2907 94.3888 21.904C93.7061 20.496 93.3648 18.8747 93.3648 17.04ZM106.741 17.072C106.741 15.7067 106.357 14.6293 105.589 13.84C104.842 13.0507 103.925 12.656 102.837 12.656C101.749 12.656 100.821 13.0507 100.053 13.84C99.3061 14.608 98.9328 15.6747 98.9328 17.04C98.9328 18.4053 99.3061 19.4933 100.053 20.304C100.821 21.0933 101.749 21.488 102.837 21.488C103.925 21.488 104.842 21.0933 105.589 20.304C106.357 19.5147 106.741 18.4373 106.741 17.072ZM121.644 11.12C122.284 10.1387 123.084 9.37067 124.044 8.816C125.004 8.24 126.07 7.952 127.244 7.952V13.744H125.74C124.374 13.744 123.35 14.0427 122.668 14.64C121.985 15.216 121.644 16.24 121.644 17.712V26H116.172V8.144H121.644V11.12ZM152.643 7.952C154.862 7.952 156.622 8.624 157.923 9.968C159.246 11.312 159.907 13.1787 159.907 15.568V26H154.467V16.304C154.467 15.152 154.158 14.2667 153.539 13.648C152.942 13.008 152.11 12.688 151.043 12.688C149.976 12.688 149.134 13.008 148.515 13.648C147.918 14.2667 147.619 15.152 147.619 16.304V26H142.179V16.304C142.179 15.152 141.87 14.2667 141.251 13.648C140.654 13.008 139.822 12.688 138.755 12.688C137.688 12.688 136.846 13.008 136.227 13.648C135.63 14.2667 135.331 15.152 135.331 16.304V26H129.859V8.144H135.331V10.384C135.886 9.63733 136.611 9.05067 137.507 8.624C138.403 8.176 139.416 7.952 140.547 7.952C141.891 7.952 143.086 8.24 144.131 8.816C145.198 9.392 146.03 10.2133 146.627 11.28C147.246 10.2987 148.088 9.49867 149.155 8.88C150.222 8.26133 151.384 7.952 152.643 7.952ZM162.646 17.04C162.646 15.2053 162.987 13.5947 163.67 12.208C164.374 10.8213 165.323 9.75467 166.518 9.008C167.713 8.26133 169.046 7.888 170.518 7.888C171.777 7.888 172.875 8.144 173.814 8.656C174.774 9.168 175.51 9.84 176.022 10.672V8.144H181.494V26H176.022V23.472C175.489 24.304 174.742 24.976 173.782 25.488C172.843 26 171.745 26.256 170.486 26.256C169.035 26.256 167.713 25.8827 166.518 25.136C165.323 24.368 164.374 23.2907 163.67 21.904C162.987 20.496 162.646 18.8747 162.646 17.04ZM176.022 17.072C176.022 15.7067 175.638 14.6293 174.87 13.84C174.123 13.0507 173.206 12.656 172.118 12.656C171.03 12.656 170.102 13.0507 169.334 13.84C168.587 14.608 168.214 15.6747 168.214 17.04C168.214 18.4053 168.587 19.4933 169.334 20.304C170.102 21.0933 171.03 21.488 172.118 21.488C173.206 21.488 174.123 21.0933 174.87 20.304C175.638 19.5147 176.022 18.4373 176.022 17.072ZM192.717 26.256C191.159 26.256 189.773 25.9893 188.557 25.456C187.341 24.9227 186.381 24.1973 185.677 23.28C184.973 22.3413 184.578 21.296 184.493 20.144H189.901C189.965 20.7627 190.253 21.264 190.765 21.648C191.277 22.032 191.906 22.224 192.653 22.224C193.335 22.224 193.858 22.096 194.221 21.84C194.605 21.5627 194.797 21.2107 194.797 20.784C194.797 20.272 194.53 19.8987 193.997 19.664C193.463 19.408 192.599 19.1307 191.405 18.832C190.125 18.5333 189.058 18.224 188.205 17.904C187.351 17.5627 186.615 17.04 185.997 16.336C185.378 15.6107 185.069 14.64 185.069 13.424C185.069 12.4 185.346 11.472 185.901 10.64C186.477 9.78667 187.309 9.11467 188.397 8.624C189.506 8.13333 190.818 7.888 192.333 7.888C194.573 7.888 196.333 8.44267 197.613 9.552C198.914 10.6613 199.661 12.1333 199.853 13.968H194.797C194.711 13.3493 194.434 12.8587 193.965 12.496C193.517 12.1333 192.919 11.952 192.173 11.952C191.533 11.952 191.042 12.08 190.701 12.336C190.359 12.5707 190.189 12.9013 190.189 13.328C190.189 13.84 190.455 14.224 190.989 14.48C191.543 14.736 192.397 14.992 193.549 15.248C194.871 15.5893 195.949 15.9307 196.781 16.272C197.613 16.592 198.338 17.1253 198.957 17.872C199.597 18.5973 199.927 19.5787 199.949 20.816C199.949 21.8613 199.65 22.8 199.053 23.632C198.477 24.4427 197.634 25.0827 196.525 25.552C195.437 26.0213 194.167 26.256 192.717 26.256ZM206.049 6.288C205.089 6.288 204.299 6.01067 203.681 5.456C203.083 4.88 202.785 4.176 202.785 3.344C202.785 2.49067 203.083 1.78667 203.681 1.232C204.299 0.655998 205.089 0.367998 206.049 0.367998C206.987 0.367998 207.755 0.655998 208.353 1.232C208.971 1.78667 209.281 2.49067 209.281 3.344C209.281 4.176 208.971 4.88 208.353 5.456C207.755 6.01067 206.987 6.288 206.049 6.288ZM208.769 8.144V26H203.297V8.144H208.769Z" fill="#333333"/>
</svg>
